<svg width="27" height="27" fill="none" xmlns="http://www.w3.org/2000/svg"><path fill-rule="evenodd" clip-rule="evenodd" d="M16.185 17.08v-1.79c.403-.2 1.555-1.571 1.675-2.642.317-.025.815-.315.962-1.464.079-.616-.235-.963-.425-1.072 0 0 .473-.897.473-1.981 0-2.173-.853-4.027-2.685-4.027 0 0-.636-1.343-2.685-1.343-3.796 0-5.37 2.435-5.37 5.37 0 .988.473 1.981.473 1.981-.19.11-.503.457-.424 1.072.147 1.149.645 1.44.961 1.464.121 1.07 1.273 2.442 1.676 2.641v1.79c-.895 2.685-8.055.895-8.055 7.16H24.24c0-6.265-7.16-4.475-8.055-7.16z" fill="#000"/></svg>