<svg width="109" height="31" fill="none" xmlns="http://www.w3.org/2000/svg"><path d="M10.25 7.925c.793.384 1.353.756 1.684 1.118l.494.592V.81h4.403v22.879h-4.403v-1.962a2.44 2.44 0 01-.2.246 7.43 7.43 0 01-.574.544c-.292.262-.61.493-.949.702-.341.207-.78.39-1.324.55a5.938 5.938 0 01-1.693.238c-2.072 0-3.872-.803-5.401-2.417C.763 19.98 0 18.01 0 15.68c0-2.328.763-4.3 2.288-5.911C3.816 8.156 5.616 7.35 7.689 7.35c.916 0 1.768.192 2.562.574zm1.03 10.928c.765-.828 1.148-1.886 1.148-3.174 0-1.287-.383-2.342-1.148-3.167-.766-.823-1.692-1.236-2.776-1.236-1.085 0-2.011.412-2.778 1.236-.766.825-1.146 1.88-1.146 3.167 0 1.288.381 2.346 1.146 3.174.767.83 1.692 1.246 2.778 1.246 1.085 0 2.01-.416 2.776-1.246zM25.019.81h-4.422v16.017h4.421V.81zm12.799 11.599a4.497 4.497 0 00-.313-.353c-.143-.148-.444-.34-.9-.58a2.99 2.99 0 00-1.404-.36c-.607 0-1.086.13-1.435.39-.352.261-.529.56-.529.902 0 .414.25.76.75 1.036.5.278 1.11.525 1.828.742a24.7 24.7 0 012.177.782 4.32 4.32 0 011.85 1.47c.502.674.75 1.512.75 2.51 0 1.436-.566 2.64-1.699 3.605-1.133.969-2.688 1.452-4.666 1.452-.85 0-1.658-.1-2.424-.303-.766-.201-1.388-.447-1.867-.733a11.6 11.6 0 01-1.253-.854c-.357-.281-.614-.518-.774-.71l-.223-.335 2.457-2.44c.085.129.221.29.408.486.186.196.577.46 1.172.797a3.718 3.718 0 001.851.505c.7 0 1.23-.136 1.588-.407.355-.27.534-.627.534-1.062 0-.437-.25-.8-.75-1.093-.5-.292-1.116-.548-1.85-.766a19.624 19.624 0 01-2.18-.79 4.583 4.583 0 01-1.825-1.436c-.5-.65-.75-1.468-.75-2.457 0-1.287.598-2.452 1.795-3.494 1.196-1.043 2.666-1.564 4.41-1.564 1.106 0 2.125.208 3.055.625.932.414 1.578.818 1.938 1.211l.56.623-2.281 2.601zm6.953-2.561c1.713-1.665 3.744-2.497 6.094-2.497.83 0 1.62.113 2.37.343.75.229 1.364.5 1.842.814.48.314.903.629 1.277.948.372.321.643.598.814.831l.239.336-2.777 2.775a4.865 4.865 0 00-.423-.59c-.196-.244-.622-.562-1.276-.95a3.989 3.989 0 00-2.067-.58c-1.16 0-2.156.43-2.99 1.291-.835.862-1.252 1.9-1.252 3.12 0 1.219.419 2.257 1.26 3.118.84.863 1.834 1.294 2.983 1.294.724 0 1.413-.177 2.067-.529.655-.35 1.13-.7 1.428-1.052l.43-.543 2.618 2.776-.264.36c-.114.155-.37.415-.775.782a8.52 8.52 0 01-1.307.974c-.467.281-1.077.54-1.828.782-.75.24-1.539.358-2.369.358-2.35 0-4.38-.832-6.094-2.497-1.711-1.664-2.569-3.607-2.569-5.83.002-2.225.858-4.17 2.569-5.834zm24.644 2.081c-.33-.105-.819-.165-1.467-.175-1.16 0-2.078.365-2.753 1.102-.675.731-1.013 1.788-1.013 3.158v7.674h-4.403V7.67h4.403v1.964c.126-.151.31-.344.541-.584.235-.24.748-.555 1.54-.95a5.543 5.543 0 012.497-.589h.654v4.418zm6.31 11.76h-4.418V7.67h4.419v16.02zm10.42-.247c-.794-.378-1.355-.752-1.683-1.125l-.494-.59v8.823h-4.404V7.67h4.404v1.964a1.89 1.89 0 01.198-.241c.09-.096.282-.274.575-.534.292-.261.609-.494.948-.702.34-.206.783-.392 1.324-.556a5.75 5.75 0 011.691-.25c2.076 0 3.874.806 5.403 2.418 1.525 1.61 2.287 3.583 2.287 5.911 0 2.33-.762 4.302-2.288 5.91-1.527 1.613-3.326 2.417-5.402 2.417a5.917 5.917 0 01-2.559-.565zm-1.028-10.93c-.767.825-1.148 1.88-1.148 3.167 0 1.288.38 2.346 1.148 3.174.766.83 1.694 1.246 2.784 1.246 1.088 0 2.017-.416 2.775-1.246.76-.828 1.139-1.886 1.139-3.174 0-1.287-.379-2.342-1.139-3.167-.758-.823-1.687-1.236-2.775-1.236-1.091 0-2.018.413-2.784 1.236zm15.855-9.563h3.925v5.056h3.256v3.924h-3.256v6.368c0 .498.185.925.552 1.274.365.352.832.528 1.396.528.286 0 .566-.029.836-.087.274-.06.476-.122.616-.185l.19-.063v3.766c-.871.328-1.856.489-2.952.476-3.371 0-5.057-1.85-5.057-5.552v-6.525h-2.776V8.005h1.466c.501 0 .927-.195 1.278-.59.352-.392.525-.902.525-1.53V2.948h.001zM76.067 3.1a2.551 2.551 0 10-5.102.001 2.551 2.551 0 005.102-.002zM20.258 21.397a2.55 2.55 0 002.549 2.55 2.55 2.55 0 000-5.101 2.55 2.55 0 00-2.55 2.55z" fill="#04A8B5"/></svg>